<?xml version="1.0" encoding="utf-8"?>
<!-- Generator: Adobe Illustrator 16.0.0, SVG Export Plug-In . SVG Version: 6.00 Build 0)  -->
<!DOCTYPE svg PUBLIC "-//W3C//DTD SVG 1.1//EN" "http://www.w3.org/Graphics/SVG/1.1/DTD/svg11.dtd">
<svg version="1.1" id="Layer_1" xmlns="http://www.w3.org/2000/svg" xmlns:xlink="http://www.w3.org/1999/xlink" x="0px" y="0px"
	 width="200px" height="60px" viewBox="0 0 200 60" enable-background="new 0 0 200 60" xml:space="preserve">
<symbol  id="phungngan__x28_c_x29_" viewBox="-105.493 -26.35 210.986 52.701">
	<g id="XMLID_125_">
		<path id="XMLID_156_" fill="#231F20" d="M-63.913,11.296l-7.949,4.59l5.597,5.597c0.977-0.519,2.216-0.368,3.04,0.455
			c1.009,1.009,1.009,2.646,0,3.655s-2.646,1.009-3.655,0c-0.823-0.823-0.975-2.063-0.456-3.039l-5.884-5.884l-9.317,5.379
			c-0.894,0.516-1.995,0.516-2.889,0l-9.316-5.379l-5.884,5.884c0.519,0.977,0.368,2.216-0.455,3.039
			c-1.01,1.009-2.646,1.009-3.655,0c-1.009-1.009-1.009-2.646,0-3.655c0.823-0.823,2.063-0.974,3.04-0.455l5.597-5.597l-7.949-4.59
			c-0.894-0.516-1.444-1.47-1.444-2.501v-21.504c0-1.032,0.551-1.986,1.444-2.502l18.624-10.752c0.894-0.516,1.995-0.516,2.889,0
			l18.624,10.752c0.894,0.516,1.444,1.47,1.444,2.502V8.795C-62.469,9.827-63.02,10.781-63.913,11.296z"/>
		<g id="XMLID_126_">
			<path id="XMLID_129_" fill="#EE9E29" d="M-65.99-9.465h-35.981c-0.583,0-1.056-0.473-1.056-1.056v-1.284
				c0-0.711,0.379-1.368,0.995-1.724l1.976-1.141c0.59-0.34,1.259-0.52,1.939-0.52h28.272c0.681,0,1.35,0.179,1.94,0.52l1.976,1.141
				c0.616,0.355,0.995,1.012,0.995,1.724v1.284C-64.934-9.938-65.407-9.465-65.99-9.465z"/>
			<path id="XMLID_128_" fill="#EE9E29" d="M-74.919-18.227h-18.123c-0.233,0-0.316-0.31-0.114-0.426l8.408-4.854
				c0.475-0.274,1.06-0.274,1.535,0l8.408,4.854C-74.603-18.536-74.686-18.227-74.919-18.227z"/>
			<path id="XMLID_127_" fill="#EE9E29" d="M-65.99-0.703h-35.981c-0.583,0-1.056-0.473-1.056-1.056v-3.612
				c0-0.583,0.473-1.056,1.056-1.056h35.981c0.583,0,1.056,0.473,1.056,1.056v3.612C-64.934-1.176-65.407-0.703-65.99-0.703z"/>
		</g>
	</g>
	<g id="XMLID_60_">
		<path id="XMLID_122_" fill="#EE9E29" d="M-45.07,8.998c5.337,0,8.188-2.261,8.188-6.908c0-5.372-2.85-7.532-8.155-7.532h-2.847
			v-6.353c0-1.832-1.179-2.456-2.325-2.456c-1.146,0-2.293,0.624-2.293,2.456V5.657c0,2.49,0.821,3.34,3.309,3.34H-45.07z
			 M-47.885,5.1v-6.646h2.847c2.325,0,3.538,0.754,3.538,3.636c0,2.421-1.213,3.01-3.538,3.01H-47.885z"/>
		<path id="XMLID_120_" fill="#EE9E29" d="M-28.753-11.795c0-1.832-1.178-2.456-2.325-2.456s-2.293,0.624-2.293,2.456V7.851
			c0,1.834,1.146,2.456,2.293,2.456s2.325-0.621,2.325-2.456V0.909c1.245,1.277,2.621,1.866,4.554,1.866
			c3.274,0,5.204-1.997,5.204-6.188v-8.382c0-1.832-1.178-2.456-2.325-2.456s-2.293,0.624-2.293,2.456v8.284
			c0,1.671-0.917,2.391-2.292,2.391c-1.701,0-2.848-1.439-2.848-5.14V-11.795z"/>
		<path id="XMLID_118_" fill="#EE9E29" d="M-9.488-14.25c-3.503,0-5.634,1.802-5.634,6.223V0.32c0,1.834,1.146,2.455,2.293,2.455
			c1.144,0,2.325-0.621,2.325-2.455v-8.153c0-1.736,0.883-2.52,2.162-2.52c1.832,0,2.978,1.768,2.978,4.879V0.32
			c0,1.834,1.146,2.455,2.29,2.455c1.146,0,2.325-0.621,2.325-2.455v-8.545c0-2.423,0.362-3.044,0.362-4.092
			c0-1.083-0.656-1.933-2.063-1.933c-1.573,0-2.423,0.787-2.914,2.49C-6.183-13.17-7.724-14.25-9.488-14.25z"/>
		<path id="XMLID_116_" fill="#EE9E29" d="M7.742-11.795c0-1.832-1.178-2.456-2.322-2.456c-1.146,0-2.292,0.624-2.292,2.456V0.32
			c0,1.834,1.146,2.455,2.292,2.455c1.144,0,2.322-0.621,2.322-2.455c1.048,1.901,2.621,2.455,4.551,2.455
			c3.274,0,5.207-1.997,5.207-6.188v-8.382c0-1.832-1.179-2.456-2.325-2.456c-1.146,0-2.291,0.624-2.291,2.456v8.284
			c0,1.671-0.917,2.391-2.292,2.391c-1.704,0-2.85-1.439-2.85-5.14V-11.795z"/>
		<path id="XMLID_113_" fill="#EE9E29" d="M24.157-13.922c-1.509,0-2,0.688-2,1.704c0,0.589,0.229,1.242,0.592,2.127l0.816,1.965
			c-1.8,0.981-2.65,2.749-2.65,5.01c0,3.602,2.16,5.892,6.908,5.892c1.704,0,2.85-0.325,4.386-0.325h3.242
			c1.245,0,1.834-0.853,1.834-1.704s-0.589-1.704-1.834-1.704h-1.013c0.197-0.653,0.293-1.373,0.293-2.159
			c0-3.602-2.127-5.895-6.908-5.895h-0.424l-0.624-1.506h3.602c4.223,0,5.468-1.867,5.468-4.551c0-4.159-3.373-5.729-7.727-5.729
			c-2.621,0-7.598,0.458-7.598,3.208c0,1.083,0.821,1.573,1.669,1.573c1.28,0,2.229-1.048,5.764-1.048
			c1.898,0,3.274,0.459,3.274,1.898c0,0.723-0.325,1.245-1.539,1.245H24.157z M25.533-3.117c0-1.309,0.685-2.162,2.29-2.162
			c1.637,0,2.29,0.853,2.29,2.162c0,1.341-0.653,2.159-2.29,2.159C26.218-0.958,25.533-1.776,25.533-3.117z"/>
		<path id="XMLID_111_" fill="#231F20" d="M43.712-11.795c0-1.832-1.178-2.456-2.322-2.456c-1.146,0-2.293,0.624-2.293,2.456V0.32
			c0,1.834,1.146,2.455,2.293,2.455c1.144,0,2.322-0.621,2.322-2.455c1.048,1.901,2.621,2.455,4.551,2.455
			c3.274,0,5.207-1.997,5.207-6.188v-8.382c0-1.832-1.178-2.456-2.325-2.456s-2.29,0.624-2.29,2.456v8.284
			c0,1.671-0.917,2.391-2.293,2.391c-1.704,0-2.85-1.439-2.85-5.14V-11.795z"/>
		<path id="XMLID_108_" fill="#231F20" d="M60.127-13.922c-1.509,0-2,0.688-2,1.704c0,0.589,0.229,1.242,0.592,2.127l0.816,1.965
			c-1.8,0.981-2.65,2.749-2.65,5.01c0,3.602,2.159,5.892,6.907,5.892c1.704,0,2.85-0.325,4.386-0.325h3.242
			c1.245,0,1.834-0.853,1.834-1.704s-0.589-1.704-1.834-1.704h-1.013c0.197-0.653,0.293-1.373,0.293-2.159
			c0-3.602-2.127-5.895-6.908-5.895h-0.424l-0.624-1.506h3.602c4.223,0,5.468-1.867,5.468-4.551c0-4.159-3.373-5.729-7.727-5.729
			c-2.621,0-7.598,0.458-7.598,3.208c0,1.083,0.821,1.573,1.669,1.573c1.28,0,2.229-1.048,5.764-1.048
			c1.898,0,3.274,0.459,3.274,1.898c0,0.723-0.325,1.245-1.539,1.245H60.127z M61.503-3.117c0-1.309,0.685-2.162,2.29-2.162
			c1.637,0,2.291,0.853,2.291,2.162c0,1.341-0.653,2.159-2.291,2.159C62.188-0.958,61.503-1.776,61.503-3.117z"/>
		<path id="XMLID_105_" fill="#231F20" d="M87.247-8.225c0-2.423,0.36-3.044,0.36-4.092c0-1.083-0.72-1.933-2.127-1.933
			c-1.475,0-2.325,0.819-2.85,2.261c-1.013-1.411-2.717-2.261-4.322-2.261c-3.503,0-5.436,1.866-5.436,5.271
			c0,3.962,3.111,4.945,6.812,4.945c1.016,0,2.029-0.099,2.946-0.229v1.21c0,1.344-0.851,1.933-2.096,1.933
			c-0.851,0-1.439-0.36-1.997-0.851c-0.558-0.493-1.112-0.917-2.258-0.917c-1.375,0-2.293,0.752-2.293,1.768
			c0,2.618,3.373,3.895,6.319,3.895c3.668,0,6.942-1.799,6.942-5.663V-8.225z M77.489-9.012c0-0.917,0.688-1.341,1.802-1.341
			c1.472,0,3.338,1.048,3.338,2.421c0,0.426-0.458,0.688-2.029,0.688C78.734-7.244,77.489-7.636,77.489-9.012z"/>
		<path id="XMLID_61_" fill="#231F20" d="M95.735-11.795c0-1.832-1.178-2.456-2.325-2.456s-2.292,0.624-2.292,2.456V0.32
			c0,1.834,1.146,2.455,2.292,2.455s2.325-0.621,2.325-2.455c1.048,1.901,2.621,2.455,4.554,2.455c3.274,0,5.204-1.997,5.204-6.188
			v-8.382c0-1.832-1.178-2.456-2.325-2.456s-2.292,0.624-2.292,2.456v8.284c0,1.671-0.917,2.391-2.293,2.391
			c-1.701,0-2.848-1.439-2.848-5.14V-11.795z"/>
	</g>
</symbol>
<use xlink:href="#phungngan__x28_c_x29_"  width="210.986" height="52.701" id="XMLID_3_" x="-105.493" y="-26.35" transform="matrix(0.899 0 0 -0.899 100 30.0005)" overflow="visible"/>
</svg>
