<?xml version="1.0" encoding="utf-8"?>
<!-- Generator: Adobe Illustrator 16.0.0, SVG Export Plug-In . SVG Version: 6.00 Build 0)  -->
<!DOCTYPE svg PUBLIC "-//W3C//DTD SVG 1.1//EN" "http://www.w3.org/Graphics/SVG/1.1/DTD/svg11.dtd">
<svg version="1.1" id="Layer_1" xmlns="http://www.w3.org/2000/svg" xmlns:xlink="http://www.w3.org/1999/xlink" x="0px" y="0px"
	 width="32px" height="32px" viewBox="0 0 32 32" enable-background="new 0 0 32 32" xml:space="preserve">
<symbol  id="phungngan__x28_c_x29_" viewBox="-105.493 -26.35 210.986 52.699">
	<g id="XMLID_11_">
		<path id="XMLID_16_" fill="#231F20" d="M-63.913,11.296l-7.948,4.59l5.596,5.597c0.978-0.519,2.217-0.367,3.041,0.455
			c1.009,1.01,1.009,2.646,0,3.655c-1.01,1.009-2.646,1.009-3.655,0c-0.823-0.823-0.976-2.063-0.456-3.038l-5.885-5.885
			l-9.316,5.379c-0.895,0.516-1.995,0.516-2.889,0l-9.316-5.379l-5.884,5.885c0.519,0.977,0.368,2.215-0.455,3.038
			c-1.01,1.009-2.646,1.009-3.655,0c-1.009-1.009-1.009-2.646,0-3.655c0.823-0.822,2.063-0.974,3.041-0.455l5.596-5.597l-7.948-4.59
			c-0.894-0.516-1.444-1.47-1.444-2.501v-21.504c0-1.032,0.551-1.986,1.444-2.502l18.624-10.752c0.895-0.516,1.994-0.516,2.889,0
			l18.624,10.752c0.894,0.516,1.444,1.47,1.444,2.502V8.795C-62.469,9.827-63.02,10.781-63.913,11.296z"/>
		<g id="XMLID_12_">
			<path id="XMLID_15_" fill="#EE9E29" d="M-65.99-9.465h-35.98c-0.584,0-1.057-0.474-1.057-1.057v-1.283
				c0-0.711,0.379-1.368,0.995-1.725l1.976-1.141c0.591-0.34,1.26-0.521,1.939-0.521h28.271c0.682,0,1.351,0.18,1.941,0.521
				l1.975,1.141c0.617,0.355,0.996,1.013,0.996,1.725v1.283C-64.934-9.938-65.407-9.465-65.99-9.465z"/>
			<path id="XMLID_14_" fill="#EE9E29" d="M-74.919-18.227h-18.123c-0.233,0-0.315-0.311-0.114-0.427l8.408-4.854
				c0.475-0.274,1.061-0.274,1.535,0l8.408,4.854C-74.604-18.536-74.686-18.227-74.919-18.227z"/>
			<path id="XMLID_13_" fill="#EE9E29" d="M-65.99-0.703h-35.98c-0.584,0-1.057-0.473-1.057-1.056v-3.612
				c0-0.583,0.473-1.056,1.057-1.056h35.98c0.583,0,1.057,0.473,1.057,1.056v3.612C-64.934-1.176-65.407-0.703-65.99-0.703z"/>
		</g>
	</g>
	<g id="XMLID_1_">
		<path id="XMLID_10_" fill="#EE9E29" d="M-45.07,8.998c5.338,0,8.188-2.261,8.188-6.908c0-5.372-2.851-7.532-8.155-7.532h-2.847
			v-6.353c0-1.832-1.179-2.456-2.325-2.456s-2.293,0.624-2.293,2.456V5.657c0,2.49,0.82,3.34,3.309,3.34L-45.07,8.998L-45.07,8.998z
			 M-47.885,5.1v-6.646h2.847c2.325,0,3.538,0.754,3.538,3.636c0,2.421-1.213,3.01-3.538,3.01H-47.885z"/>
		<path id="XMLID_9_" fill="#EE9E29" d="M-28.753-11.795c0-1.832-1.179-2.456-2.325-2.456s-2.293,0.624-2.293,2.456V7.851
			c0,1.834,1.146,2.456,2.293,2.456s2.325-0.621,2.325-2.456V0.909c1.245,1.276,2.621,1.866,4.554,1.866
			c3.274,0,5.204-1.997,5.204-6.188v-8.382c0-1.832-1.178-2.456-2.325-2.456c-1.146,0-2.293,0.624-2.293,2.456v8.284
			c0,1.671-0.916,2.391-2.291,2.391c-1.701,0-2.849-1.438-2.849-5.14V-11.795z"/>
		<path id="XMLID_8_" fill="#EE9E29" d="M-9.488-14.25c-3.503,0-5.634,1.802-5.634,6.223V0.32c0,1.834,1.146,2.455,2.293,2.455
			c1.144,0,2.325-0.621,2.325-2.455v-8.153c0-1.736,0.883-2.52,2.162-2.52c1.832,0,2.978,1.768,2.978,4.879V0.32
			c0,1.834,1.146,2.455,2.29,2.455c1.146,0,2.325-0.621,2.325-2.455v-8.545c0-2.424,0.362-3.044,0.362-4.093
			c0-1.083-0.656-1.933-2.063-1.933c-1.573,0-2.423,0.787-2.914,2.49C-6.183-13.17-7.724-14.25-9.488-14.25z"/>
		<path id="XMLID_7_" fill="#EE9E29" d="M7.742-11.795c0-1.832-1.178-2.456-2.322-2.456c-1.146,0-2.292,0.624-2.292,2.456V0.32
			c0,1.834,1.146,2.455,2.292,2.455c1.144,0,2.322-0.621,2.322-2.455c1.048,1.9,2.621,2.455,4.551,2.455
			c3.274,0,5.207-1.997,5.207-6.188v-8.382c0-1.832-1.179-2.456-2.325-2.456c-1.146,0-2.291,0.624-2.291,2.456v8.284
			c0,1.671-0.917,2.391-2.292,2.391c-1.704,0-2.85-1.438-2.85-5.14V-11.795z"/>
		<path id="XMLID_6_" fill="#EE9E29" d="M24.157-13.922c-1.509,0-2,0.688-2,1.704c0,0.589,0.229,1.242,0.592,2.127l0.816,1.965
			c-1.801,0.981-2.65,2.749-2.65,5.01c0,3.603,2.16,5.893,6.908,5.893c1.704,0,2.85-0.325,4.386-0.325h3.242
			c1.245,0,1.834-0.854,1.834-1.704s-0.589-1.704-1.834-1.704h-1.013c0.196-0.653,0.293-1.373,0.293-2.159
			c0-3.602-2.128-5.895-6.908-5.895h-0.424l-0.624-1.506h3.602c4.223,0,5.468-1.867,5.468-4.552c0-4.158-3.373-5.729-7.727-5.729
			c-2.621,0-7.599,0.458-7.599,3.208c0,1.083,0.821,1.573,1.67,1.573c1.279,0,2.229-1.049,5.764-1.049
			c1.897,0,3.273,0.459,3.273,1.898c0,0.723-0.324,1.245-1.538,1.245L24.157-13.922L24.157-13.922z M25.533-3.117
			c0-1.309,0.685-2.162,2.29-2.162c1.637,0,2.29,0.854,2.29,2.162c0,1.341-0.653,2.159-2.29,2.159
			C26.218-0.958,25.533-1.776,25.533-3.117z"/>
		<path id="XMLID_5_" fill="#231F20" d="M43.712-11.795c0-1.832-1.178-2.456-2.322-2.456c-1.146,0-2.293,0.624-2.293,2.456V0.32
			c0,1.834,1.146,2.455,2.293,2.455c1.145,0,2.322-0.621,2.322-2.455c1.048,1.9,2.621,2.455,4.551,2.455
			c3.274,0,5.207-1.997,5.207-6.188v-8.382c0-1.832-1.178-2.456-2.325-2.456c-1.146,0-2.289,0.624-2.289,2.456v8.284
			c0,1.671-0.917,2.391-2.294,2.391c-1.703,0-2.85-1.438-2.85-5.14V-11.795z"/>
		<path id="XMLID_4_" fill="#231F20" d="M60.127-13.922c-1.509,0-2,0.688-2,1.704c0,0.589,0.229,1.242,0.592,2.127l0.816,1.965
			c-1.8,0.981-2.65,2.749-2.65,5.01c0,3.603,2.159,5.893,6.907,5.893c1.704,0,2.85-0.325,4.386-0.325h3.242
			c1.245,0,1.834-0.854,1.834-1.704s-0.589-1.704-1.834-1.704h-1.013C70.604-1.61,70.7-2.33,70.7-3.116
			c0-3.602-2.127-5.895-6.908-5.895h-0.424l-0.624-1.506h3.602c4.224,0,5.469-1.867,5.469-4.552c0-4.158-3.373-5.729-7.728-5.729
			c-2.621,0-7.598,0.458-7.598,3.208c0,1.083,0.82,1.573,1.669,1.573c1.279,0,2.229-1.049,5.764-1.049
			c1.898,0,3.274,0.459,3.274,1.898c0,0.723-0.325,1.245-1.539,1.245L60.127-13.922L60.127-13.922z M61.503-3.117
			c0-1.309,0.686-2.162,2.29-2.162c1.637,0,2.291,0.854,2.291,2.162c0,1.341-0.653,2.159-2.291,2.159
			C62.188-0.958,61.503-1.776,61.503-3.117z"/>
		<path id="XMLID_3_" fill="#231F20" d="M87.247-8.225c0-2.424,0.36-3.044,0.36-4.093c0-1.083-0.721-1.933-2.127-1.933
			c-1.476,0-2.325,0.819-2.851,2.261c-1.013-1.411-2.717-2.261-4.322-2.261c-3.503,0-5.436,1.866-5.436,5.271
			c0,3.962,3.111,4.944,6.812,4.944c1.017,0,2.029-0.099,2.946-0.229v1.21c0,1.344-0.851,1.933-2.096,1.933
			c-0.852,0-1.439-0.36-1.997-0.851c-0.559-0.493-1.112-0.917-2.258-0.917c-1.375,0-2.293,0.752-2.293,1.768
			c0,2.618,3.373,3.896,6.318,3.896c3.668,0,6.942-1.8,6.942-5.663V-8.225z M77.489-9.012c0-0.917,0.688-1.341,1.802-1.341
			c1.472,0,3.338,1.048,3.338,2.421c0,0.426-0.458,0.688-2.029,0.688C78.734-7.244,77.489-7.636,77.489-9.012z"/>
		<path id="XMLID_2_" fill="#231F20" d="M95.735-11.795c0-1.832-1.179-2.456-2.325-2.456c-1.147,0-2.292,0.624-2.292,2.456V0.32
			c0,1.834,1.146,2.455,2.292,2.455c1.146,0,2.325-0.621,2.325-2.455c1.048,1.9,2.621,2.455,4.554,2.455
			c3.274,0,5.204-1.997,5.204-6.188v-8.382c0-1.832-1.178-2.456-2.325-2.456c-1.146,0-2.292,0.624-2.292,2.456v8.284
			c0,1.671-0.917,2.391-2.293,2.391c-1.701,0-2.848-1.438-2.848-5.14V-11.795z"/>
	</g>
</symbol>
<use xlink:href="#phungngan__x28_c_x29_"  width="210.986" height="52.699" id="XMLID_17_" x="-105.493" y="-26.35" transform="matrix(0.5977 0 0 -0.5977 66.0732 16.0186)" overflow="visible"/>
</svg>
