<svg xmlns="http://www.w3.org/2000/svg" viewBox="0 0 34.49 37.22"><defs><style>.cls-1{fill:none;stroke:#444;stroke-linecap:round;stroke-linejoin:round;}</style></defs><g id="Layer_2" data-name="Layer 2"><g id="transport"><path class="cls-1" d="M33.34,22.73a1.57,1.57,0,0,1,0,2.54L18.18,36.41a1.58,1.58,0,0,1-1.87,0L1.14,25.27a1.58,1.58,0,0,1,0-2.54"/><path class="cls-1" d="M1.14,17.34a1.58,1.58,0,0,0,0,2.54L2.63,21,16.31,31a1.58,1.58,0,0,0,1.87,0L31.86,21l1.48-1.09a1.57,1.57,0,0,0,0-2.54"/><path class="cls-1" d="M33.34,12,18.18.81a1.58,1.58,0,0,0-1.87,0L1.14,12a1.58,1.58,0,0,0,0,2.54l1.49,1.09L5.85,18l10.46,7.68a1.58,1.58,0,0,0,1.87,0L28.64,18l3.22-2.37,1.48-1.09A1.57,1.57,0,0,0,33.34,12Z"/></g></g></svg>