<svg xmlns="http://www.w3.org/2000/svg" viewBox="0 0 37.26 35.68"><defs><style>.cls-1{fill:none;stroke:#444;stroke-linecap:round;stroke-linejoin:round;}</style></defs><g id="Layer_2" data-name="Layer 2"><g id="transport"><line class="cls-1" x1="36.76" y1="5.23" x2="14.69" y2="5.23"/><line class="cls-1" x1="6.81" y1="5.23" x2="0.5" y2="5.23"/><line class="cls-1" x1="36.76" y1="17.84" x2="32.03" y2="17.84"/><line class="cls-1" x1="24.14" y1="17.84" x2="0.5" y2="17.84"/><line class="cls-1" x1="36.76" y1="30.45" x2="9.96" y2="30.45"/><line class="cls-1" x1="2.08" y1="30.45" x2="0.5" y2="30.45"/><path class="cls-1" d="M9.17,10h0A2.36,2.36,0,0,1,6.81,7.59V2.86A2.36,2.36,0,0,1,9.17.5h0a2.36,2.36,0,0,1,2.36,2.36V7.59A2.36,2.36,0,0,1,9.17,10Z"/><path class="cls-1" d="M26.51,22.57h0a2.37,2.37,0,0,1-2.37-2.37V15.48a2.37,2.37,0,0,1,2.37-2.37h0a2.36,2.36,0,0,1,2.36,2.37V20.2A2.36,2.36,0,0,1,26.51,22.57Z"/><path class="cls-1" d="M4.44,35.18h0a2.36,2.36,0,0,1-2.36-2.37V28.09a2.36,2.36,0,0,1,2.36-2.37h0a2.37,2.37,0,0,1,2.37,2.37v4.72A2.37,2.37,0,0,1,4.44,35.18Z"/></g></g></svg>