<?xml version="1.0" encoding="utf-8"?>
<!-- Generator: Adobe Illustrator 16.0.0, SVG Export Plug-In . SVG Version: 6.00 Build 0)  -->
<!DOCTYPE svg PUBLIC "-//W3C//DTD SVG 1.1//EN" "http://www.w3.org/Graphics/SVG/1.1/DTD/svg11.dtd">
<svg version="1.1" xmlns="http://www.w3.org/2000/svg" xmlns:xlink="http://www.w3.org/1999/xlink" x="0px" y="0px" width="200px"
	 height="60px" viewBox="0 0 200 60" enable-background="new 0 0 200 60" xml:space="preserve">
<symbol  id="phungngan__x28_c_x29_" viewBox="-105.493 -26.35 210.986 52.701">
	<g id="XMLID_125_">
		<path id="XMLID_156_" fill="#231F20" d="M-63.913,11.296l-7.949,4.59l5.597,5.597c0.977-0.519,2.216-0.368,3.04,0.455
			c1.009,1.009,1.009,2.646,0,3.655s-2.646,1.009-3.655,0c-0.823-0.823-0.975-2.063-0.456-3.039l-5.884-5.884l-9.317,5.379
			c-0.894,0.516-1.995,0.516-2.889,0l-9.316-5.379l-5.884,5.884c0.519,0.977,0.368,2.216-0.455,3.039
			c-1.01,1.009-2.646,1.009-3.655,0c-1.009-1.009-1.009-2.646,0-3.655c0.823-0.823,2.063-0.974,3.04-0.455l5.597-5.597l-7.949-4.59
			c-0.894-0.516-1.444-1.47-1.444-2.501v-21.504c0-1.032,0.551-1.986,1.444-2.502l18.624-10.752c0.894-0.516,1.995-0.516,2.889,0
			l18.624,10.752c0.894,0.516,1.444,1.47,1.444,2.502V8.795C-62.469,9.827-63.02,10.781-63.913,11.296z"/>
		<g id="XMLID_126_">
			<path id="XMLID_129_" fill="#EE9E29" d="M-65.99-9.465h-35.981c-0.583,0-1.056-0.473-1.056-1.056v-1.284
				c0-0.711,0.379-1.368,0.995-1.724l1.976-1.141c0.59-0.34,1.259-0.52,1.939-0.52h28.272c0.681,0,1.35,0.179,1.94,0.52l1.976,1.141
				c0.616,0.355,0.995,1.012,0.995,1.724v1.284C-64.934-9.938-65.407-9.465-65.99-9.465z"/>
			<path id="XMLID_128_" fill="#EE9E29" d="M-74.919-18.227h-18.123c-0.233,0-0.316-0.31-0.114-0.426l8.408-4.854
				c0.475-0.274,1.06-0.274,1.535,0l8.408,4.854C-74.603-18.536-74.686-18.227-74.919-18.227z"/>
			<path id="XMLID_127_" fill="#EE9E29" d="M-65.99-0.703h-35.981c-0.583,0-1.056-0.473-1.056-1.056v-3.612
				c0-0.583,0.473-1.056,1.056-1.056h35.981c0.583,0,1.056,0.473,1.056,1.056v3.612C-64.934-1.176-65.407-0.703-65.99-0.703z"/>
		</g>
	</g>
	<g id="XMLID_60_">
		<path id="XMLID_122_" fill="#EE9E29" d="M-45.07,8.998c5.337,0,8.188-2.261,8.188-6.908c0-5.372-2.85-7.532-8.155-7.532h-2.847
			v-6.353c0-1.832-1.179-2.456-2.325-2.456c-1.146,0-2.293,0.624-2.293,2.456V5.657c0,2.49,0.821,3.34,3.309,3.34H-45.07z
			 M-47.885,5.1v-6.646h2.847c2.325,0,3.538,0.754,3.538,3.636c0,2.421-1.213,3.01-3.538,3.01H-47.885z"/>
		<path id="XMLID_120_" fill="#EE9E29" d="M-28.753-11.795c0-1.832-1.178-2.456-2.325-2.456s-2.293,0.624-2.293,2.456V7.851
			c0,1.834,1.146,2.456,2.293,2.456s2.325-0.621,2.325-2.456V0.909c1.245,1.277,2.621,1.866,4.554,1.866
			c3.274,0,5.204-1.997,5.204-6.188v-8.382c0-1.832-1.178-2.456-2.325-2.456s-2.293,0.624-2.293,2.456v8.284
			c0,1.671-0.917,2.391-2.292,2.391c-1.701,0-2.848-1.439-2.848-5.14V-11.795z"/>
		<path id="XMLID_118_" fill="#EE9E29" d="M-9.488-14.25c-3.503,0-5.634,1.802-5.634,6.223V0.32c0,1.834,1.146,2.455,2.293,2.455
			c1.144,0,2.325-0.621,2.325-2.455v-8.153c0-1.736,0.883-2.52,2.162-2.52c1.832,0,2.978,1.768,2.978,4.879V0.32
			c0,1.834,1.146,2.455,2.29,2.455c1.146,0,2.325-0.621,2.325-2.455v-8.545c0-2.423,0.362-3.044,0.362-4.092
			c0-1.083-0.656-1.933-2.063-1.933c-1.573,0-2.423,0.787-2.914,2.49C-6.183-13.17-7.724-14.25-9.488-14.25z"/>
		<path id="XMLID_116_" fill="#EE9E29" d="M7.742-11.795c0-1.832-1.178-2.456-2.322-2.456c-1.146,0-2.292,0.624-2.292,2.456V0.32
			c0,1.834,1.146,2.455,2.292,2.455c1.144,0,2.322-0.621,2.322-2.455c1.048,1.901,2.621,2.455,4.551,2.455
			c3.274,0,5.207-1.997,5.207-6.188v-8.382c0-1.832-1.179-2.456-2.325-2.456c-1.146,0-2.291,0.624-2.291,2.456v8.284
			c0,1.671-0.917,2.391-2.292,2.391c-1.704,0-2.85-1.439-2.85-5.14V-11.795z"/>
		<path id="XMLID_113_" fill="#EE9E29" d="M24.157-13.922c-1.509,0-2,0.688-2,1.704c0,0.589,0.229,1.242,0.592,2.127l0.816,1.965
			c-1.8,0.981-2.65,2.749-2.65,5.01c0,3.602,2.16,5.892,6.908,5.892c1.704,0,2.85-0.325,4.386-0.325h3.242
			c1.245,0,1.834-0.853,1.834-1.704s-0.589-1.704-1.834-1.704h-1.013c0.197-0.653,0.293-1.373,0.293-2.159
			c0-3.602-2.127-5.895-6.908-5.895h-0.424l-0.624-1.506h3.602c4.223,0,5.468-1.867,5.468-4.551c0-4.159-3.373-5.729-7.727-5.729
			c-2.621,0-7.598,0.458-7.598,3.208c0,1.083,0.821,1.573,1.669,1.573c1.28,0,2.229-1.048,5.764-1.048
			c1.898,0,3.274,0.459,3.274,1.898c0,0.723-0.325,1.245-1.539,1.245H24.157z M25.533-3.117c0-1.309,0.685-2.162,2.29-2.162
			c1.637,0,2.29,0.853,2.29,2.162c0,1.341-0.653,2.159-2.29,2.159C26.218-0.958,25.533-1.776,25.533-3.117z"/>
		<path id="XMLID_111_" fill="#231F20" d="M43.712-11.795c0-1.832-1.178-2.456-2.322-2.456c-1.146,0-2.293,0.624-2.293,2.456V0.32
			c0,1.834,1.146,2.455,2.293,2.455c1.144,0,2.322-0.621,2.322-2.455c1.048,1.901,2.621,2.455,4.551,2.455
			c3.274,0,5.207-1.997,5.207-6.188v-8.382c0-1.832-1.178-2.456-2.325-2.456s-2.29,0.624-2.29,2.456v8.284
			c0,1.671-0.917,2.391-2.293,2.391c-1.704,0-2.85-1.439-2.85-5.14V-11.795z"/>
		<path id="XMLID_108_" fill="#231F20" d="M60.127-13.922c-1.509,0-2,0.688-2,1.704c0,0.589,0.229,1.242,0.592,2.127l0.816,1.965
			c-1.8,0.981-2.65,2.749-2.65,5.01c0,3.602,2.159,5.892,6.907,5.892c1.704,0,2.85-0.325,4.386-0.325h3.242
			c1.245,0,1.834-0.853,1.834-1.704s-0.589-1.704-1.834-1.704h-1.013c0.197-0.653,0.293-1.373,0.293-2.159
			c0-3.602-2.127-5.895-6.908-5.895h-0.424l-0.624-1.506h3.602c4.223,0,5.468-1.867,5.468-4.551c0-4.159-3.373-5.729-7.727-5.729
			c-2.621,0-7.598,0.458-7.598,3.208c0,1.083,0.821,1.573,1.669,1.573c1.28,0,2.229-1.048,5.764-1.048
			c1.898,0,3.274,0.459,3.274,1.898c0,0.723-0.325,1.245-1.539,1.245H60.127z M61.503-3.117c0-1.309,0.685-2.162,2.29-2.162
			c1.637,0,2.291,0.853,2.291,2.162c0,1.341-0.653,2.159-2.291,2.159C62.188-0.958,61.503-1.776,61.503-3.117z"/>
		<path id="XMLID_105_" fill="#231F20" d="M87.247-8.225c0-2.423,0.36-3.044,0.36-4.092c0-1.083-0.72-1.933-2.127-1.933
			c-1.475,0-2.325,0.819-2.85,2.261c-1.013-1.411-2.717-2.261-4.322-2.261c-3.503,0-5.436,1.866-5.436,5.271
			c0,3.962,3.111,4.945,6.812,4.945c1.016,0,2.029-0.099,2.946-0.229v1.21c0,1.344-0.851,1.933-2.096,1.933
			c-0.851,0-1.439-0.36-1.997-0.851c-0.558-0.493-1.112-0.917-2.258-0.917c-1.375,0-2.293,0.752-2.293,1.768
			c0,2.618,3.373,3.895,6.319,3.895c3.668,0,6.942-1.799,6.942-5.663V-8.225z M77.489-9.012c0-0.917,0.688-1.341,1.802-1.341
			c1.472,0,3.338,1.048,3.338,2.421c0,0.426-0.458,0.688-2.029,0.688C78.734-7.244,77.489-7.636,77.489-9.012z"/>
		<path id="XMLID_61_" fill="#231F20" d="M95.735-11.795c0-1.832-1.178-2.456-2.325-2.456s-2.292,0.624-2.292,2.456V0.32
			c0,1.834,1.146,2.455,2.292,2.455s2.325-0.621,2.325-2.455c1.048,1.901,2.621,2.455,4.554,2.455c3.274,0,5.204-1.997,5.204-6.188
			v-8.382c0-1.832-1.178-2.456-2.325-2.456s-2.292,0.624-2.292,2.456v8.284c0,1.671-0.917,2.391-2.293,2.391
			c-1.701,0-2.848-1.439-2.848-5.14V-11.795z"/>
	</g>
</symbol>
<g id="Layer_4" display="none">
	
		<rect x="-6.375" y="-14.375" display="inline" fill="#EC008C" stroke="#FFFFFF" stroke-miterlimit="10" width="226.411" height="88.036"/>
</g>
<g id="Layer_1" display="none">
	
		<use xlink:href="#phungngan__x28_c_x29_"  width="210.986" height="52.701" id="XMLID_3_" x="-105.493" y="-26.35" transform="matrix(0.899 0 0 -0.899 100 30.0005)" display="inline" overflow="visible"/>
</g>
<g id="Layer_2">
	<g id="phungngan__x28_bw_x29_">
		<path fill="#231F20" d="M42.515,19.536l-7.142-4.123l5.028-5.029c0.878,0.466,1.992,0.33,2.731-0.409
			c0.907-0.907,0.907-2.377,0-3.284s-2.377-0.907-3.284,0c-0.739,0.739-0.875,1.853-0.409,2.73l-5.287,5.287l-8.37-4.833
			c-0.803-0.464-1.792-0.464-2.595,0l-8.37,4.833L9.532,9.422c0.466-0.877,0.33-1.991-0.409-2.73c-0.907-0.907-2.377-0.907-3.284,0
			c-0.906,0.907-0.906,2.377,0,3.284c0.74,0.739,1.853,0.875,2.731,0.409l5.028,5.029l-7.142,4.123
			c-0.803,0.463-1.297,1.32-1.297,2.248v19.319c0,0.928,0.495,1.784,1.297,2.248l16.731,9.659c0.803,0.464,1.792,0.464,2.595,0
			l16.731-9.659c0.803-0.464,1.297-1.32,1.297-2.248V21.783C43.812,20.856,43.317,19.999,42.515,19.536z M32.729,46.442
			l-7.554,4.361c-0.427,0.246-0.953,0.246-1.379,0l-7.554-4.361c-0.182-0.104-0.107-0.383,0.103-0.383h16.282
			C32.836,46.06,32.911,46.338,32.729,46.442z M41.597,40.29c0,0.639-0.34,1.229-0.894,1.549l-1.775,1.024
			c-0.53,0.306-1.131,0.467-1.743,0.467h-25.4c-0.612,0-1.213-0.161-1.743-0.467l-1.775-1.024c-0.553-0.319-0.894-0.91-0.894-1.549
			v-1.153c0-0.523,0.425-0.948,0.949-0.948h32.326c0.524,0,0.949,0.425,0.949,0.948V40.29z M41.597,34.51
			c0,0.524-0.425,0.949-0.949,0.949H8.323c-0.524,0-0.949-0.425-0.949-0.949v-3.244c0-0.524,0.425-0.949,0.949-0.949h32.326
			c0.524,0,0.949,0.425,0.949,0.949V34.51z"/>
		<g id="XMLID_2_">
			<path id="XMLID_24_" fill="#231F20" d="M59.444,21.601c4.795,0,7.355,2.031,7.355,6.206c0,4.826-2.561,6.766-7.327,6.766h-2.558
				v5.708c0,1.646-1.059,2.206-2.089,2.206s-2.06-0.561-2.06-2.206V24.602c0-2.237,0.738-3.001,2.972-3.001H59.444z M56.915,25.103
				v5.971h2.558c2.088,0,3.178-0.678,3.178-3.267c0-2.175-1.09-2.704-3.178-2.704H56.915z"/>
			<path id="XMLID_22_" fill="#231F20" d="M74.103,40.281c0,1.646-1.059,2.206-2.089,2.206s-2.06-0.561-2.06-2.206v-17.65
				c0-1.648,1.03-2.206,2.06-2.206s2.089,0.558,2.089,2.206v6.237c1.118-1.147,2.354-1.677,4.091-1.677
				c2.941,0,4.675,1.794,4.675,5.56v7.53c0,1.646-1.059,2.206-2.088,2.206c-1.03,0-2.06-0.561-2.06-2.206v-7.442
				c0-1.501-0.824-2.148-2.06-2.148c-1.528,0-2.558,1.293-2.558,4.618V40.281z"/>
			<path id="XMLID_20_" fill="#231F20" d="M91.41,42.487c-3.147,0-5.061-1.619-5.061-5.591v-7.499c0-1.648,1.03-2.206,2.06-2.206
				c1.028,0,2.089,0.558,2.089,2.206v7.324c0,1.56,0.792,2.264,1.942,2.264c1.646,0,2.675-1.588,2.675-4.383v-5.205
				c0-1.648,1.03-2.206,2.058-2.206c1.03,0,2.088,0.558,2.088,2.206v7.677c0,2.177,0.326,2.735,0.326,3.677
				c0,0.972-0.589,1.736-1.854,1.736c-1.413,0-2.177-0.707-2.618-2.237C94.38,41.518,92.996,42.487,91.41,42.487z"/>
			<path id="XMLID_18_" fill="#231F20" d="M106.891,40.281c0,1.646-1.06,2.206-2.087,2.206c-1.029,0-2.06-0.561-2.06-2.206V29.397
				c0-1.648,1.03-2.206,2.06-2.206c1.027,0,2.087,0.558,2.087,2.206c0.94-1.708,2.354-2.206,4.088-2.206
				c2.941,0,4.678,1.794,4.678,5.56v7.53c0,1.646-1.059,2.206-2.088,2.206c-1.03,0-2.058-0.561-2.058-2.206v-7.442
				c0-1.501-0.824-2.148-2.061-2.148c-1.53,0-2.56,1.293-2.56,4.618V40.281z"/>
			<path id="XMLID_15_" fill="#231F20" d="M121.638,42.192c-1.356,0-1.797-0.618-1.797-1.53c0-0.529,0.206-1.116,0.532-1.911
				l0.732-1.766c-1.616-0.882-2.381-2.47-2.381-4.501c0-3.235,1.94-5.293,6.206-5.293c1.53,0,2.561,0.292,3.94,0.292h2.912
				c1.119,0,1.648,0.767,1.648,1.531s-0.529,1.531-1.648,1.531h-0.91c0.178,0.587,0.264,1.233,0.264,1.939
				c0,3.236-1.911,5.296-6.206,5.296h-0.381l-0.561,1.354h3.236c3.794,0,4.912,1.677,4.912,4.089c0,3.736-3.029,5.147-6.941,5.147
				c-2.354,0-6.826-0.412-6.826-2.882c0-0.973,0.738-1.413,1.5-1.413c1.149,0,2.002,0.941,5.178,0.941
				c1.706,0,2.941-0.412,2.941-1.705c0-0.649-0.292-1.119-1.382-1.119H121.638z M122.873,32.484c0,1.177,0.616,1.943,2.058,1.943
				c1.471,0,2.058-0.767,2.058-1.943c0-1.204-0.587-1.939-2.058-1.939C123.489,30.545,122.873,31.28,122.873,32.484z"/>
			<path id="XMLID_13_" fill="none" stroke="#231F20" stroke-width="0.8984" d="M139.206,40.281c0,1.646-1.059,2.206-2.086,2.206
				c-1.03,0-2.061-0.561-2.061-2.206V29.397c0-1.648,1.03-2.206,2.061-2.206c1.027,0,2.086,0.558,2.086,2.206
				c0.941-1.708,2.354-2.206,4.089-2.206c2.941,0,4.678,1.794,4.678,5.56v7.53c0,1.646-1.059,2.206-2.089,2.206
				s-2.058-0.561-2.058-2.206v-7.442c0-1.501-0.823-2.148-2.06-2.148c-1.53,0-2.561,1.293-2.561,4.618V40.281z"/>
			<path id="XMLID_9_" fill="none" stroke="#231F20" stroke-width="0.8984" d="M153.953,42.192c-1.355,0-1.796-0.618-1.796-1.53
				c0-0.529,0.206-1.116,0.531-1.911l0.733-1.766c-1.617-0.882-2.381-2.47-2.381-4.501c0-3.235,1.939-5.293,6.206-5.293
				c1.53,0,2.561,0.292,3.939,0.292h2.913c1.118,0,1.647,0.767,1.647,1.531s-0.529,1.531-1.647,1.531h-0.91
				c0.177,0.587,0.264,1.233,0.264,1.939c0,3.236-1.912,5.296-6.206,5.296h-0.381l-0.561,1.354h3.235
				c3.794,0,4.913,1.677,4.913,4.089c0,3.736-3.03,5.147-6.941,5.147c-2.354,0-6.826-0.412-6.826-2.882
				c0-0.973,0.737-1.413,1.499-1.413c1.149,0,2.003,0.941,5.179,0.941c1.705,0,2.941-0.412,2.941-1.705
				c0-0.649-0.292-1.119-1.383-1.119H153.953z M155.189,32.484c0,1.177,0.615,1.943,2.058,1.943c1.471,0,2.057-0.767,2.057-1.943
				c0-1.204-0.586-1.939-2.057-1.939C155.805,30.545,155.189,31.28,155.189,32.484z"/>
			<path id="XMLID_6_" fill="none" stroke="#231F20" stroke-width="0.8984" d="M178.317,37.074c0,2.177,0.323,2.735,0.323,3.677
				c0,0.972-0.646,1.736-1.911,1.736c-1.325,0-2.089-0.735-2.561-2.031c-0.91,1.267-2.44,2.031-3.883,2.031
				c-3.147,0-4.884-1.677-4.884-4.735c0-3.56,2.795-4.443,6.12-4.443c0.912,0,1.822,0.089,2.646,0.206v-1.087
				c0-1.208-0.765-1.737-1.883-1.737c-0.764,0-1.293,0.323-1.794,0.764c-0.501,0.443-0.999,0.824-2.028,0.824
				c-1.236,0-2.061-0.676-2.061-1.588c0-2.352,3.03-3.5,5.677-3.5c3.296,0,6.237,1.617,6.237,5.088V37.074z M169.551,37.78
				c0,0.824,0.618,1.205,1.619,1.205c1.322,0,2.999-0.941,2.999-2.175c0-0.383-0.412-0.618-1.823-0.618
				C170.669,36.192,169.551,36.545,169.551,37.78z"/>
			<path id="XMLID_4_" fill="none" stroke="#231F20" stroke-width="0.8984" d="M185.943,40.281c0,1.646-1.059,2.206-2.089,2.206
				c-1.029,0-2.06-0.561-2.06-2.206V29.397c0-1.648,1.03-2.206,2.06-2.206c1.03,0,2.089,0.558,2.089,2.206
				c0.941-1.708,2.354-2.206,4.091-2.206c2.941,0,4.676,1.794,4.676,5.56v7.53c0,1.646-1.059,2.206-2.089,2.206
				c-1.029,0-2.06-0.561-2.06-2.206v-7.442c0-1.501-0.824-2.148-2.06-2.148c-1.528,0-2.559,1.293-2.559,4.618V40.281z"/>
		</g>
	</g>
</g>
</svg>
